<svg width="103" height="58" viewBox="0 0 103 58" fill="none" xmlns="http://www.w3.org/2000/svg">
<g clip-path="url(#clip0_4002_17558)">
<path d="M66.6103 35.7907C66.5192 35.5816 66.3708 35.4026 66.1823 35.2744C65.9937 35.1461 65.7727 35.0738 65.5448 35.0659C65.3169 35.0579 65.0914 35.1146 64.8944 35.2294C64.6974 35.3441 64.5368 35.5123 64.4313 35.7145C64.3259 35.9167 64.2797 36.1446 64.2983 36.3719C64.3169 36.5991 64.3994 36.8165 64.5363 36.9989C64.6732 37.1813 64.8589 37.3212 65.072 37.4024C65.285 37.4837 65.5167 37.503 65.7403 37.4582C65.9172 37.4227 66.0838 37.3481 66.2281 37.2398C66.3723 37.1315 66.4905 36.9923 66.5739 36.8324C66.6573 36.6725 66.7039 36.4959 66.7102 36.3157C66.7165 36.1354 66.6824 35.956 66.6103 35.7907ZM37.3566 35.3919C37.2024 35.2367 37.0089 35.1263 36.7968 35.0724C36.5848 35.0185 36.3621 35.0232 36.1525 35.0861C35.9429 35.1489 35.7543 35.2674 35.6068 35.429C35.4593 35.5907 35.3585 35.7893 35.315 36.0038C35.2716 36.2182 35.2873 36.4404 35.3603 36.6467C35.4333 36.853 35.5609 37.0355 35.7296 37.1749C35.8982 37.3143 36.1016 37.4053 36.3179 37.4382C36.5342 37.471 36.7554 37.4445 36.9578 37.3615C37.1417 37.2861 37.3041 37.1665 37.4307 37.0133C37.5574 36.8601 37.6442 36.6781 37.6837 36.4833C37.7231 36.2885 37.7139 36.087 37.6568 35.8966C37.5998 35.7063 37.4966 35.5329 37.3566 35.3919ZM52.207 27.7915H49.7903C49.4699 27.7915 49.1625 27.9188 48.9359 28.1454C48.7093 28.372 48.582 28.6794 48.582 28.9998C48.582 29.3203 48.7093 29.6277 48.9359 29.8543C49.1625 30.0809 49.4699 30.2082 49.7903 30.2082H52.207C52.5275 30.2082 52.8348 30.0809 53.0614 29.8543C53.288 29.6277 53.4153 29.3203 53.4153 28.9998C53.4153 28.6794 53.288 28.372 53.0614 28.1454C52.8348 27.9188 52.5275 27.7915 52.207 27.7915Z" fill="#24272C"/>
<path d="M74.9483 24.7224L64.8224 23.0307C60.6658 19.4661 58.8412 17.5086 54.9262 16.3486C54.6185 16.2589 54.2878 16.2951 54.0068 16.4491C53.7258 16.6032 53.5176 16.8626 53.4278 17.1703C53.3381 17.4779 53.3743 17.8086 53.5284 18.0896C53.6825 18.3706 53.9419 18.5789 54.2495 18.6686C57.3308 19.587 58.8291 21.0853 61.0283 22.9582H48.5824V20.5415C48.5824 20.2211 48.4551 19.9137 48.2285 19.6871C48.0019 19.4605 47.6946 19.3332 47.3741 19.3332C47.0536 19.3332 46.7463 19.4605 46.5197 19.6871C46.2931 19.9137 46.1658 20.2211 46.1658 20.5415V22.9582H38.3478L36.2937 19.877C35.8224 19.152 35.762 19.3332 29.2733 19.3332C27.9593 19.3329 26.681 19.7609 25.6322 20.5524C24.5834 21.3439 23.8212 22.4558 23.4612 23.7195C21.7333 29.7732 21.9991 28.0815 21.9991 32.6249C21.9991 33.9068 22.5083 35.1361 23.4147 36.0426C24.3212 36.949 25.5505 37.4582 26.8324 37.4582H30.5783C30.8556 38.824 31.5966 40.0519 32.6756 40.9338C33.7547 41.8158 35.1055 42.2976 36.4991 42.2976C37.8927 42.2976 39.2435 41.8158 40.3226 40.9338C41.4016 40.0519 42.1426 38.824 42.4199 37.4582H59.5783C59.8556 38.824 60.5966 40.0519 61.6756 40.9338C62.7547 41.8158 64.1055 42.2976 65.4991 42.2976C66.8927 42.2976 68.2435 41.8158 69.3226 40.9338C70.4016 40.0519 71.1426 38.824 71.4199 37.4582H75.1658C76.4476 37.4582 77.677 36.949 78.5834 36.0426C79.4899 35.1361 79.9991 33.9068 79.9991 32.6249V30.6795C79.9984 29.2494 79.4905 27.8659 78.5657 26.7751C77.6408 25.6843 76.359 24.9569 74.9483 24.7224ZM76.1566 27.8278C76.5389 28.1115 76.8616 28.4677 77.1063 28.8762C77.3509 29.2846 77.5127 29.7372 77.5824 30.2082H76.3741C76.2154 30.2201 76.0559 30.2006 75.9048 30.1509C75.7536 30.1012 75.6138 30.0222 75.4931 29.9184C75.3725 29.8146 75.2735 29.6881 75.2018 29.546C75.1301 29.404 75.087 29.2492 75.0751 29.0905C75.0632 28.9318 75.0827 28.7724 75.1324 28.6212C75.1822 28.47 75.2612 28.3302 75.365 28.2095C75.4688 28.0889 75.5953 27.9899 75.7373 27.9182C75.8794 27.8465 76.0342 27.8034 76.1928 27.7915L76.1566 27.8278ZM36.4991 39.8749C35.7821 39.8749 35.0813 39.6623 34.4852 39.264C33.889 38.8656 33.4244 38.2995 33.15 37.6371C32.8757 36.9747 32.8039 36.2459 32.9437 35.5427C33.0836 34.8395 33.4289 34.1936 33.9358 33.6866C34.4428 33.1797 35.0887 32.8344 35.7919 32.6945C36.4951 32.5547 37.2239 32.6264 37.8863 32.9008C38.5487 33.1752 39.1149 33.6398 39.5132 34.2359C39.9115 34.8321 40.1241 35.5329 40.1241 36.2499C40.1241 37.2113 39.7422 38.1333 39.0624 38.8131C38.3825 39.493 37.4605 39.8749 36.4991 39.8749ZM65.4991 39.8749C64.7821 39.8749 64.0813 39.6623 63.4852 39.264C62.889 38.8656 62.4244 38.2995 62.15 37.6371C61.8757 36.9747 61.8039 36.2459 61.9437 35.5427C62.0836 34.8395 62.4289 34.1936 62.9358 33.6866C63.4428 33.1797 64.0887 32.8344 64.7919 32.6945C65.4951 32.5547 66.2239 32.6264 66.8863 32.9008C67.5487 33.1752 68.1149 33.6398 68.5132 34.2359C68.9115 34.8321 69.1241 35.5329 69.1241 36.2499C69.1241 37.2113 68.7422 38.1333 68.0624 38.8131C67.3825 39.493 66.4605 39.8749 65.4991 39.8749ZM75.1658 35.0415H71.4199C71.1426 33.6758 70.4016 32.4479 69.3226 31.5659C68.2435 30.684 66.8927 30.2022 65.4991 30.2022C64.1055 30.2022 62.7547 30.684 61.6756 31.5659C60.5966 32.4479 59.8556 33.6758 59.5783 35.0415H42.4199C42.1426 33.6758 41.4016 32.4479 40.3226 31.5659C39.2435 30.684 37.8927 30.2022 36.4991 30.2022C35.1055 30.2022 33.7547 30.684 32.6756 31.5659C31.5966 32.4479 30.8556 33.6758 30.5783 35.0415H26.8324C26.1915 35.0415 25.5768 34.7869 25.1236 34.3337C24.6704 33.8805 24.4158 33.2658 24.4158 32.6249H25.6241C25.9446 32.6249 26.2519 32.4976 26.4785 32.271C26.7051 32.0444 26.8324 31.737 26.8324 31.4165C26.8324 31.0961 26.7051 30.7887 26.4785 30.5621C26.2519 30.3355 25.9446 30.2082 25.6241 30.2082H24.4158C24.4158 28.9153 24.2828 29.6524 25.7812 24.384C25.9958 23.6286 26.4501 22.9632 27.0755 22.4882C27.7009 22.0131 28.4637 21.754 29.2491 21.7499H34.6141C36.7166 24.8915 36.8374 25.3749 37.6833 25.3749C69.2812 25.3749 61.0887 24.8674 73.4016 26.9095C72.9094 27.6038 72.6772 28.4492 72.7457 29.2975C72.8142 30.1459 73.179 30.9431 73.7762 31.5495C74.9845 32.7578 76.3137 32.6249 77.5583 32.6249C77.5583 33.2617 77.307 33.8727 76.859 34.3252C76.411 34.7778 75.8025 35.0352 75.1658 35.0415Z" fill="#24272C"/>
</g>
<defs>
<clipPath id="clip0_4002_17558">
<rect width="58" height="58" fill="white" transform="translate(22)"/>
</clipPath>
</defs>
</svg>
