<svg width="58" height="30" viewBox="0 0 58 30" fill="none" xmlns="http://www.w3.org/2000/svg">
<path d="M58 17.1999C57.7178 16.0267 57.1965 14.9242 56.4688 13.9616C55.7411 12.999 54.8227 12.1968 53.7708 11.6053C51.9704 10.6024 51.6804 10.7112 42.8958 9.11616C36.9992 3.21949 35.3075 0.573242 30.8125 0.573242H3.625C3.30453 0.573242 2.99719 0.700549 2.77058 0.927155C2.54397 1.15376 2.41667 1.46111 2.41667 1.78158C2.41667 2.10205 2.54397 2.40939 2.77058 2.636C2.99719 2.8626 3.30453 2.98991 3.625 2.98991H3.96333C0.435 9.03158 0 11.702 0 18.6982C0 20.3006 0.636531 21.8373 1.76956 22.9703C2.9026 24.1034 4.43932 24.7399 6.04167 24.7399H8.57917C8.8565 26.1057 9.59747 27.3336 10.6765 28.2155C11.7556 29.0975 13.1064 29.5793 14.5 29.5793C15.8936 29.5793 17.2444 29.0975 18.3235 28.2155C19.4025 27.3336 20.1435 26.1057 20.4208 24.7399H37.5792C37.8565 26.1057 38.5975 27.3336 39.6765 28.2155C40.7556 29.0975 42.1064 29.5793 43.5 29.5793C44.8936 29.5793 46.2444 29.0975 47.3235 28.2155C48.4025 27.3336 49.1435 26.1057 49.4208 24.7399H54.375C55.3364 24.7399 56.2584 24.358 56.9383 23.6782C57.6181 22.9984 58 22.0763 58 21.1149C58.0841 19.8113 58.0841 18.5036 58 17.1999ZM52.8283 13.8649C53.765 14.4549 54.5216 15.2909 55.0154 16.2816H53.1667C52.8462 16.3264 52.521 16.2422 52.2627 16.0473C52.0044 15.8524 51.834 15.5629 51.7892 15.2424C51.7443 14.9219 51.8286 14.5968 52.0235 14.3384C52.2183 14.0801 52.5079 13.9098 52.8283 13.8649ZM39.3796 9.03158H28.6979L26.9821 2.98991C34.2079 2.98991 32.8908 2.54283 39.3796 9.03158ZM12.7238 2.98991H15.3096L13.6783 8.72949C10.875 4.92324 10.875 5.76908 12.7238 2.98991ZM17.8229 2.98991H24.4688L26.1846 9.03158H16.1071L17.8229 2.98991ZM2.73083 12.4874H3.54042C3.88332 12.4874 4.21218 12.6236 4.45465 12.8661C4.69712 13.1086 4.83333 13.4374 4.83333 13.7803C4.83333 14.1232 4.69712 14.4521 4.45465 14.6946C4.21218 14.937 3.88332 15.0732 3.54042 15.0732H2.41667C2.4668 14.2055 2.57173 13.3419 2.73083 12.4874ZM14.5 27.1566C13.783 27.1566 13.0822 26.944 12.4861 26.5457C11.8899 26.1473 11.4253 25.5812 11.1509 24.9188C10.8766 24.2564 10.8048 23.5276 10.9447 22.8244C11.0845 22.1212 11.4298 21.4753 11.9367 20.9683C12.4437 20.4613 13.0896 20.1161 13.7928 19.9762C14.496 19.8364 15.2248 19.9081 15.8872 20.1825C16.5496 20.4569 17.1158 20.9215 17.5141 21.5176C17.9124 22.1138 18.125 22.8146 18.125 23.5316C18.125 24.493 17.7431 25.415 17.0633 26.0948C16.3834 26.7747 15.4614 27.1566 14.5 27.1566ZM43.5 27.1566C42.783 27.1566 42.0822 26.944 41.4861 26.5457C40.8899 26.1473 40.4253 25.5812 40.1509 24.9188C39.8766 24.2564 39.8048 23.5276 39.9447 22.8244C40.0845 22.1212 40.4298 21.4753 40.9367 20.9683C41.4437 20.4613 42.0896 20.1161 42.7928 19.9762C43.496 19.8364 44.2248 19.9081 44.8872 20.1825C45.5496 20.4569 46.1158 20.9215 46.5141 21.5176C46.9124 22.1138 47.125 22.8146 47.125 23.5316C47.125 24.493 46.7431 25.415 46.0633 26.0948C45.3834 26.7747 44.4614 27.1566 43.5 27.1566ZM54.375 22.3232H49.4208C49.1435 20.9575 48.4025 19.7296 47.3235 18.8476C46.2444 17.9657 44.8936 17.4839 43.5 17.4839C42.1064 17.4839 40.7556 17.9657 39.6765 18.8476C38.5975 19.7296 37.8565 20.9575 37.5792 22.3232H20.4208C20.1435 20.9575 19.4025 19.7296 18.3235 18.8476C17.2444 17.9657 15.8936 17.4839 14.5 17.4839C13.1064 17.4839 11.7556 17.9657 10.6765 18.8476C9.59747 19.7296 8.8565 20.9575 8.57917 22.3232H6.04167C5.08026 22.3232 4.15822 21.9413 3.4784 21.2615C2.79859 20.5817 2.41667 19.6597 2.41667 18.6982V17.4899H3.54042C8.37375 17.4899 8.60333 10.0707 3.31083 10.0707C3.96058 8.00232 4.87868 6.028 6.04167 4.19824C6.83917 2.79658 8.27708 2.98991 9.82375 2.98991C9.30114 3.61991 9.00714 4.40824 8.98958 5.2266C8.97203 6.04496 9.23197 6.84516 9.72708 7.49699C13.05 11.9316 12.2163 11.4482 14.5 11.4482C47.2096 11.4482 39.585 10.977 50.2667 12.9224C49.8696 13.461 49.6294 14.099 49.5727 14.7657C49.5159 15.4325 49.6448 16.1019 49.945 16.6999C50.2453 17.2978 50.7052 17.8011 51.2738 18.1538C51.8424 18.5065 52.4975 18.6949 53.1667 18.6982H55.5833V21.1149C55.5833 21.4354 55.456 21.7427 55.2294 21.9693C55.0028 22.1959 54.6955 22.3232 54.375 22.3232Z" fill="#24272C"/>
</svg>
