<svg width="58" height="28" viewBox="0 0 58 28" fill="none" xmlns="http://www.w3.org/2000/svg">
<path d="M55.0275 10.1098L44.0317 8.10401L37.1804 2.23151C34.9208 0.286095 33.6521 0.781512 21.0733 0.781512C20.314 0.782932 19.5742 1.0228 18.9585 1.46725C18.3427 1.9117 17.8821 2.53829 17.6417 3.2586L16.0467 8.03151H1.20833C0.887863 8.03151 0.580519 8.15882 0.353913 8.38542C0.127306 8.61203 0 8.91938 0 9.23985L0 18.9065C0 19.8679 0.381919 20.79 1.06174 21.4698C1.74156 22.1496 2.66359 22.5315 3.625 22.5315H7.37083C7.64816 23.8973 8.38913 25.1252 9.46819 26.0071C10.5472 26.8891 11.898 27.3709 13.2917 27.3709C14.6853 27.3709 16.0361 26.8891 17.1151 26.0071C18.1942 25.1252 18.9352 23.8973 19.2125 22.5315H38.7875C39.0648 23.8973 39.8058 25.1252 40.8849 26.0071C41.9639 26.8891 43.3147 27.3709 44.7083 27.3709C46.102 27.3709 47.4528 26.8891 48.5318 26.0071C49.6109 25.1252 50.3518 23.8973 50.6292 22.5315H54.375C55.3364 22.5315 56.2584 22.1496 56.9383 21.4698C57.6181 20.79 58 19.8679 58 18.9065V13.6744C57.9997 12.8264 57.7021 12.0053 57.159 11.354C56.6159 10.7028 55.8617 10.2625 55.0275 10.1098ZM55.5833 15.2815H53.1667V12.2244C55.8613 12.7198 55.5833 12.6594 55.5833 15.2815ZM40.2375 8.03151H31.4167V3.19818C35.2954 3.19818 34.1233 2.78735 40.2375 8.03151ZM23.4296 8.03151L25.0367 3.19818H29V8.03151H23.4296ZM2.41667 10.4482H4.83333V11.6565C4.83333 11.977 4.70603 12.2843 4.47942 12.5109C4.25281 12.7375 3.94547 12.8648 3.625 12.8648H2.41667V10.4482ZM13.2917 24.9482C12.5747 24.9482 11.8739 24.7356 11.2777 24.3373C10.6816 23.9389 10.217 23.3728 9.9426 22.7104C9.66824 22.048 9.59645 21.3192 9.73632 20.616C9.87619 19.9128 10.2214 19.2669 10.7284 18.7599C11.2354 18.253 11.8813 17.9077 12.5845 17.7678C13.2876 17.628 14.0165 17.6997 14.6789 17.9741C15.3413 18.2485 15.9074 18.7131 16.3057 19.3092C16.7041 19.9054 16.9167 20.6062 16.9167 21.3232C16.9167 22.2846 16.5347 23.2066 15.8549 23.8864C15.1751 24.5663 14.2531 24.9482 13.2917 24.9482ZM44.7083 24.9482C43.9914 24.9482 43.2905 24.7356 42.6944 24.3373C42.0983 23.9389 41.6336 23.3728 41.3593 22.7104C41.0849 22.048 41.0131 21.3192 41.153 20.616C41.2929 19.9128 41.6381 19.2669 42.1451 18.7599C42.652 18.253 43.298 17.9077 44.0011 17.7678C44.7043 17.628 45.4332 17.6997 46.0956 17.9741C46.7579 18.2485 47.3241 18.7131 47.7224 19.3092C48.1207 19.9054 48.3333 20.6062 48.3333 21.3232C48.3333 22.2846 47.9514 23.2066 47.2716 23.8864C46.5918 24.5663 45.6697 24.9482 44.7083 24.9482ZM54.375 20.1148H50.6292C50.3518 18.7491 49.6109 17.5212 48.5318 16.6392C47.4528 15.7573 46.102 15.2755 44.7083 15.2755C43.3147 15.2755 41.9639 15.7573 40.8849 16.6392C39.8058 17.5212 39.0648 18.7491 38.7875 20.1148H19.2125C18.9352 18.7491 18.1942 17.5212 17.1151 16.6392C16.0361 15.7573 14.6853 15.2755 13.2917 15.2755C11.898 15.2755 10.5472 15.7573 9.46819 16.6392C8.38913 17.5212 7.64816 18.7491 7.37083 20.1148H3.625C3.30453 20.1148 2.99719 19.9875 2.77058 19.7609C2.54397 19.5343 2.41667 19.227 2.41667 18.9065V15.2815H3.625C4.58641 15.2815 5.50844 14.8996 6.18826 14.2198C6.86808 13.54 7.25 12.6179 7.25 11.6565V10.4482H16.9167C18.125 10.4482 18.0042 9.80776 19.9254 4.01985C20.2396 3.08943 21.0008 3.19818 22.4871 3.19818L21.1338 7.27026C21.0132 7.63362 20.9806 8.02043 21.0388 8.39883C21.097 8.77723 21.2442 9.13639 21.4684 9.44672C21.6926 9.75706 21.9874 10.0097 22.3283 10.1838C22.6693 10.3579 23.0467 10.4485 23.4296 10.4482C47.3787 10.4482 40.9383 10.0011 50.75 11.7894V15.2815C50.75 15.9225 51.0046 16.5371 51.4578 16.9904C51.911 17.4436 52.5257 17.6982 53.1667 17.6982H55.5833V18.9065C55.5833 19.227 55.456 19.5343 55.2294 19.7609C55.0028 19.9875 54.6955 20.1148 54.375 20.1148Z" fill="#24272C"/>
</svg>
