<svg width="58" height="28" viewBox="0 0 58 28" fill="none" xmlns="http://www.w3.org/2000/svg">
<path d="M55.0271 10.1097L44.0313 8.10384L37.18 2.23134C34.8963 0.273841 35.8025 0.781341 5.36461 0.781341C4.60317 0.780227 3.86071 1.01892 3.24257 1.46355C2.62442 1.90818 2.16199 2.53617 1.92086 3.25842C0.665354 7.09918 0.0489612 11.12 0.0962814 15.1605C0.168781 18.7855 -0.0849685 20.0905 1.13545 21.3834C2.52503 22.8697 4.05961 22.5313 7.37045 22.5313C7.64778 23.8971 8.38875 25.125 9.4678 26.007C10.5469 26.8889 11.8976 27.3707 13.2913 27.3707C14.6849 27.3707 16.0357 26.8889 17.1148 26.007C18.1938 25.125 18.9348 23.8971 19.2121 22.5313H38.7871C39.0644 23.8971 39.8054 25.125 40.8845 26.007C41.9635 26.8889 43.3143 27.3707 44.708 27.3707C46.1016 27.3707 47.4524 26.8889 48.5314 26.007C49.6105 25.125 50.3515 23.8971 50.6288 22.5313H54.3746C55.336 22.5313 56.2581 22.1494 56.9379 21.4696C57.6177 20.7898 57.9996 19.8678 57.9996 18.9063V13.6743C57.9993 12.8262 57.7018 12.0052 57.1586 11.3539C56.6155 10.7026 55.8613 10.2623 55.0271 10.1097ZM55.583 15.0638C54.9623 14.8548 54.4098 14.4815 53.9843 13.9837C53.5588 13.4858 53.2761 12.882 53.1663 12.2363C55.8125 12.7076 55.583 12.7318 55.583 15.0638ZM40.2371 8.03134H30.2079V3.19801C35.4884 3.19801 33.8329 2.55759 40.2371 8.03134ZM21.7496 3.19801V8.03134H15.7079V3.19801H21.7496ZM2.79086 10.448H4.83295V11.6563C4.83295 11.9768 4.70564 12.2842 4.47904 12.5108C4.25243 12.7374 3.94508 12.8647 3.62461 12.8647H2.57337C2.60962 12.0551 2.6942 11.2455 2.79086 10.448ZM13.2913 24.948C12.5743 24.948 11.8735 24.7354 11.2773 24.3371C10.6812 23.9388 10.2166 23.3726 9.94222 22.7102C9.66785 22.0479 9.59606 21.319 9.73593 20.6158C9.87581 19.9126 10.2211 19.2667 10.728 18.7597C11.235 18.2528 11.8809 17.9075 12.5841 17.7677C13.2873 17.6278 14.0161 17.6996 14.6785 17.9739C15.3409 18.2483 15.907 18.7129 16.3054 19.3091C16.7037 19.9052 16.9163 20.6061 16.9163 21.323C16.9163 22.2844 16.5344 23.2064 15.8545 23.8863C15.1747 24.5661 14.2527 24.948 13.2913 24.948ZM44.708 24.948C43.991 24.948 43.2901 24.7354 42.694 24.3371C42.0979 23.9388 41.6333 23.3726 41.3589 22.7102C41.0845 22.0479 41.0127 21.319 41.1526 20.6158C41.2925 19.9126 41.6377 19.2667 42.1447 18.7597C42.6517 18.2528 43.2976 17.9075 44.0007 17.7677C44.7039 17.6278 45.4328 17.6996 46.0952 17.9739C46.7576 18.2483 47.3237 18.7129 47.722 19.3091C48.1203 19.9052 48.333 20.6061 48.333 21.323C48.333 22.2844 47.951 23.2064 47.2712 23.8863C46.5914 24.5661 45.6694 24.948 44.708 24.948ZM54.3746 20.1147H50.6288C50.3515 18.7489 49.6105 17.521 48.5314 16.6391C47.4524 15.7571 46.1016 15.2753 44.708 15.2753C43.3143 15.2753 41.9635 15.7571 40.8845 16.6391C39.8054 17.521 39.0644 18.7489 38.7871 20.1147H19.2121C18.9348 18.7489 18.1938 17.521 17.1148 16.6391C16.0357 15.7571 14.6849 15.2753 13.2913 15.2753C11.8976 15.2753 10.5469 15.7571 9.4678 16.6391C8.38875 17.521 7.64778 18.7489 7.37045 20.1147C1.8967 20.1147 2.60961 20.8397 2.53711 15.2813H3.62461C4.58602 15.2813 5.50806 14.8994 6.18788 14.2196C6.8677 13.5398 7.24961 12.6178 7.24961 11.6563V9.23967C7.24961 8.9192 7.12231 8.61186 6.8957 8.38525C6.6691 8.15865 6.36175 8.03134 6.04128 8.03134H3.18962C3.4479 6.67399 3.79093 5.33415 4.2167 4.01967C4.59128 2.92009 4.89337 3.19801 13.2913 3.19801V9.23967C13.2913 9.56014 13.4186 9.86749 13.6452 10.0941C13.8718 10.3207 14.1791 10.448 14.4996 10.448H22.9579C23.2784 10.448 23.5858 10.3207 23.8124 10.0941C24.039 9.86749 24.1663 9.56014 24.1663 9.23967V3.19801H27.7913V8.03134C27.7913 8.67228 28.0459 9.28697 28.4991 9.74018C28.9523 10.1934 29.567 10.448 30.2079 10.448C46.0371 10.448 41.4817 10.0976 50.7496 11.7893C50.7795 13.1591 51.2742 14.4781 52.1525 15.5298C53.0307 16.5815 54.2404 17.3035 55.583 17.5772V18.9063C55.583 19.2268 55.4556 19.5342 55.229 19.7608C55.0024 19.9874 54.6951 20.1147 54.3746 20.1147Z" fill="#24272C"/>
</svg>
