<svg width="58" height="30" viewBox="0 0 58 30" fill="none" xmlns="http://www.w3.org/2000/svg">
<path d="M58 17.1999C57.7164 16.0272 57.1946 14.9254 56.4671 13.9629C55.7395 13.0005 54.8218 12.198 53.7708 11.6053C51.9946 10.6024 51.475 10.6749 42.8958 9.11616C36.1413 2.38575 35.1625 0.573247 31.8275 0.573247H10.5608C9.7112 0.571995 8.87625 0.794731 8.14013 1.21901C7.40401 1.64328 6.79273 2.25411 6.36792 2.98991C2.88792 9.03158 2.64625 9.47866 2.5375 9.69616C2.42875 9.91366 2.41667 9.672 2.41667 17.4899H1.20833C0.887864 17.4899 0.580519 17.6172 0.353913 17.8438C0.127306 18.0704 0 18.3778 0 18.6982L0 23.5316C0 23.8521 0.127306 24.1594 0.353913 24.386C0.580519 24.6126 0.887864 24.7399 1.20833 24.7399H8.57917C8.8565 26.1057 9.59747 27.3336 10.6765 28.2155C11.7556 29.0975 13.1064 29.5793 14.5 29.5793C15.8936 29.5793 17.2444 29.0975 18.3235 28.2155C19.4025 27.3336 20.1435 26.1057 20.4208 24.7399H37.5792C37.8565 26.1057 38.5975 27.3336 39.6765 28.2155C40.7556 29.0975 42.1064 29.5793 43.5 29.5793C44.8936 29.5793 46.2444 29.0975 47.3235 28.2155C48.4025 27.3336 49.1435 26.1057 49.4208 24.7399C51.2853 24.5489 53.1371 24.2503 54.9671 23.8457C55.8226 23.7042 56.5991 23.2606 57.1556 22.5955C57.712 21.9304 58.0116 21.0879 58 20.2207C58.0737 19.2152 58.0737 18.2055 58 17.1999ZM52.8283 13.8649C53.765 14.4549 54.5216 15.2909 55.0154 16.2816H53.1667C52.8462 16.3264 52.521 16.2422 52.2627 16.0473C52.0044 15.8524 51.834 15.5629 51.7892 15.2424C51.7443 14.9219 51.8286 14.5968 52.0235 14.3384C52.2183 14.0801 52.5079 13.9098 52.8283 13.8649ZM39.3796 9.03158H30.0513L29.1813 2.98991C34.2079 2.98991 32.625 2.31325 39.3796 9.03158ZM16.3125 9.03158C13.2071 4.887 13.2554 5.80533 15.1042 2.98991H19.1158L18.2458 9.03158H16.3125ZM21.5929 2.98991H26.7404L27.6104 9.03158H20.7229L21.5929 2.98991ZM6.04167 11.4482C6.36214 11.4482 6.66948 11.5756 6.89609 11.8022C7.12269 12.0288 7.25 12.3361 7.25 12.6566C7.25 12.9771 7.12269 13.2844 6.89609 13.511C6.66948 13.7376 6.36214 13.8649 6.04167 13.8649H4.83333V11.4482H6.04167ZM14.5 27.1566C13.783 27.1566 13.0822 26.944 12.4861 26.5457C11.8899 26.1473 11.4253 25.5812 11.1509 24.9188C10.8766 24.2564 10.8048 23.5276 10.9447 22.8244C11.0845 22.1212 11.4298 21.4753 11.9367 20.9683C12.4437 20.4614 13.0896 20.1161 13.7928 19.9762C14.496 19.8364 15.2248 19.9081 15.8872 20.1825C16.5496 20.4569 17.1158 20.9215 17.5141 21.5176C17.9124 22.1138 18.125 22.8146 18.125 23.5316C18.125 24.493 17.7431 25.415 17.0633 26.0948C16.3834 26.7747 15.4614 27.1566 14.5 27.1566ZM43.5 27.1566C42.783 27.1566 42.0822 26.944 41.4861 26.5457C40.8899 26.1473 40.4253 25.5812 40.1509 24.9188C39.8766 24.2564 39.8048 23.5276 39.9447 22.8244C40.0845 22.1212 40.4298 21.4753 40.9367 20.9683C41.4437 20.4614 42.0896 20.1161 42.7928 19.9762C43.496 19.8364 44.2248 19.9081 44.8872 20.1825C45.5496 20.4569 46.1158 20.9215 46.5141 21.5176C46.9124 22.1138 47.125 22.8146 47.125 23.5316C47.125 24.493 46.7431 25.415 46.0633 26.0948C45.3834 26.7747 44.4614 27.1566 43.5 27.1566ZM54.5683 21.4653C49.3363 22.3232 49.5417 22.3232 49.4208 22.3232C49.1435 20.9575 48.4025 19.7296 47.3235 18.8476C46.2444 17.9657 44.8936 17.4839 43.5 17.4839C42.1064 17.4839 40.7556 17.9657 39.6765 18.8476C38.5975 19.7296 37.8565 20.9575 37.5792 22.3232H20.4208C20.1435 20.9575 19.4025 19.7296 18.3235 18.8476C17.2444 17.9657 15.8936 17.4839 14.5 17.4839C13.1064 17.4839 11.7556 17.9657 10.6765 18.8476C9.59747 19.7296 8.8565 20.9575 8.57917 22.3232H2.41667V19.9066H3.625C3.94547 19.9066 4.25281 19.7793 4.47942 19.5527C4.70603 19.3261 4.83333 19.0187 4.83333 18.6982V16.2816H6.04167C10.7904 16.2816 11.0563 9.03158 5.70333 9.03158C9.32833 2.66366 8.50667 2.98991 12.2404 2.98991C11.7178 3.61991 11.4238 4.40824 11.4063 5.2266C11.3887 6.04496 11.6486 6.84517 12.1438 7.497L14.7417 10.9649C15.2613 11.6657 13.3279 11.4482 42.1829 11.4482L50.2667 12.9224C49.8696 13.461 49.6295 14.099 49.5727 14.7657C49.5159 15.4325 49.6448 16.1019 49.945 16.6999C50.2453 17.2978 50.7052 17.8011 51.2738 18.1538C51.8424 18.5065 52.4976 18.6949 53.1667 18.6982H55.5833V20.2812C55.5813 20.5666 55.4783 20.8422 55.2925 21.0589C55.1067 21.2757 54.8501 21.4197 54.5683 21.4653Z" fill="#24272C"/>
<path d="M44.612 23.0722C44.5493 22.9137 44.4537 22.7702 44.3316 22.6512C44.2095 22.5322 44.0635 22.4404 43.9034 22.3818C43.7432 22.3232 43.5725 22.2992 43.4024 22.3113C43.2323 22.3234 43.0668 22.3714 42.9165 22.4521C42.7663 22.5328 42.6349 22.6444 42.5309 22.7795C42.4268 22.9146 42.3526 23.0702 42.313 23.2361C42.2734 23.4019 42.2694 23.5743 42.3012 23.7418C42.3329 23.9093 42.3998 24.0682 42.4974 24.2081C42.6669 24.451 42.9197 24.6231 43.2078 24.6919C43.4959 24.7607 43.7992 24.7212 44.0601 24.5811C44.321 24.4409 44.5214 24.2098 44.6231 23.9317C44.7249 23.6535 44.7209 23.3477 44.612 23.0722ZM14.9595 22.4197C14.7196 22.3212 14.4544 22.3024 14.203 22.3663C13.9516 22.4301 13.7275 22.5731 13.5636 22.7741C13.3998 22.9751 13.305 23.2235 13.2932 23.4826C13.2815 23.7417 13.3534 23.9977 13.4983 24.2127C13.6432 24.4278 13.8535 24.5905 14.098 24.6768C14.3426 24.7632 14.6084 24.7686 14.8563 24.6922C15.1041 24.6158 15.3208 24.4617 15.4743 24.2526C15.6278 24.0436 15.7099 23.7907 15.7086 23.5314C15.7075 23.2929 15.6357 23.06 15.5024 22.8622C15.369 22.6643 15.1801 22.5104 14.9595 22.4197ZM33.8336 13.8647H31.417C31.0965 13.8647 30.7892 13.9921 30.5626 14.2187C30.336 14.4453 30.2086 14.7526 30.2086 15.0731C30.2086 15.3935 30.336 15.7009 30.5626 15.9275C30.7892 16.1541 31.0965 16.2814 31.417 16.2814H33.8336C34.1541 16.2814 34.4615 16.1541 34.6881 15.9275C34.9147 15.7009 35.042 15.3935 35.042 15.0731C35.042 14.7526 34.9147 14.4453 34.6881 14.2187C34.4615 13.9921 34.1541 13.8647 33.8336 13.8647ZM24.167 13.8647H21.7503C21.4298 13.8647 21.1225 13.9921 20.8959 14.2187C20.6693 14.4453 20.542 14.7526 20.542 15.0731C20.542 15.3935 20.6693 15.7009 20.8959 15.9275C21.1225 16.1541 21.4298 16.2814 21.7503 16.2814H24.167C24.4874 16.2814 24.7948 16.1541 25.0214 15.9275C25.248 15.7009 25.3753 15.3935 25.3753 15.0731C25.3753 14.7526 25.248 14.4453 25.0214 14.2187C24.7948 13.9921 24.4874 13.8647 24.167 13.8647Z" fill="#24272C"/>
</svg>
