<svg width="58" height="28" viewBox="0 0 58 28" fill="none" xmlns="http://www.w3.org/2000/svg">
<path d="M52.9502 9.796L42.8243 8.10433L35.9731 2.23183C33.7377 0.322667 32.7347 0.781834 19.3343 0.781834C16.1323 0.781834 13.2202 0.516001 9.9335 3.07767C4.21809 7.51225 1.6685 8.87767 0.266837 12.9497C-0.107747 14.2064 0.00100326 15.0039 0.00100326 17.6985C0.00100326 18.9804 0.510228 20.2098 1.41665 21.1162C2.32308 22.0226 3.55246 22.5318 4.83434 22.5318H8.58017C8.8575 23.8976 9.59847 25.1255 10.6775 26.0075C11.7566 26.8894 13.1074 27.3712 14.501 27.3712C15.8946 27.3712 17.2454 26.8894 18.3245 26.0075C19.4035 25.1255 20.1445 23.8976 20.4218 22.5318H37.5802C37.8575 23.8976 38.5985 25.1255 39.6775 26.0075C40.7566 26.8894 42.1074 27.3712 43.501 27.3712C44.8946 27.3712 46.2454 26.8894 47.3245 26.0075C48.4035 25.1255 49.1445 23.8976 49.4218 22.5318H53.1677C54.4495 22.5318 55.6789 22.0226 56.5854 21.1162C57.4918 20.2098 58.001 18.9804 58.001 17.6985V15.7531C58.0003 14.323 57.4924 12.9395 56.5676 11.8487C55.6427 10.7579 54.3609 10.0305 52.9502 9.796ZM39.0302 8.03183H29.001V3.1985C34.2814 3.1985 32.626 2.55808 39.0302 8.03183ZM26.5843 3.1985V8.03183H16.7606L19.9868 3.1985H26.5843ZM14.501 24.9485C13.784 24.9485 13.0832 24.7359 12.4871 24.3376C11.8909 23.9393 11.4263 23.3731 11.1519 22.7107C10.8776 22.0483 10.8058 21.3195 10.9457 20.6163C11.0855 19.9131 11.4308 19.2672 11.9377 18.7602C12.4447 18.2533 13.0906 17.908 13.7938 17.7682C14.497 17.6283 15.2258 17.7001 15.8882 17.9744C16.5506 18.2488 17.1168 18.7134 17.5151 19.3096C17.9134 19.9057 18.126 20.6065 18.126 21.3235C18.126 22.2849 17.7441 23.2069 17.0643 23.8868C16.3844 24.5666 15.4624 24.9485 14.501 24.9485ZM43.501 24.9485C42.784 24.9485 42.0832 24.7359 41.4871 24.3376C40.8909 23.9393 40.4263 23.3731 40.1519 22.7107C39.8776 22.0483 39.8058 21.3195 39.9457 20.6163C40.0855 19.9131 40.4308 19.2672 40.9377 18.7602C41.4447 18.2533 42.0906 17.908 42.7938 17.7682C43.497 17.6283 44.2258 17.7001 44.8882 17.9744C45.5506 18.2488 46.1168 18.7134 46.5151 19.3096C46.9134 19.9057 47.126 20.6065 47.126 21.3235C47.126 22.2849 46.7441 23.2069 46.0643 23.8868C45.3844 24.5666 44.4624 24.9485 43.501 24.9485ZM53.1677 20.1152H49.4218C49.1445 18.7494 48.4035 17.5215 47.3245 16.6395C46.2454 15.7576 44.8946 15.2758 43.501 15.2758C42.1074 15.2758 40.7566 15.7576 39.6775 16.6395C38.5985 17.5215 37.8575 18.7494 37.5802 20.1152H20.4218C20.1445 18.7494 19.4035 17.5215 18.3245 16.6395C17.2454 15.7576 15.8946 15.2758 14.501 15.2758C13.1074 15.2758 11.7566 15.7576 10.6775 16.6395C9.59847 17.5215 8.8575 18.7494 8.58017 20.1152H4.83434C4.1934 20.1152 3.57871 19.8606 3.12549 19.4073C2.67228 18.9541 2.41767 18.3394 2.41767 17.6985H3.626C3.94647 17.6985 4.25382 17.5712 4.48042 17.3446C4.70703 17.118 4.83434 16.8106 4.83434 16.4902C4.83434 16.1697 4.70703 15.8624 4.48042 15.6357C4.25382 15.4091 3.94647 15.2818 3.626 15.2818H2.41767C2.38022 14.7515 2.44168 14.2189 2.59892 13.711C3.63809 10.6056 5.01559 9.96517 11.4198 4.97475C13.0353 3.73245 15.039 3.1031 17.0748 3.1985C14.9118 6.44892 13.7398 7.50017 14.6581 9.16767C14.8616 9.54997 15.1641 9.87056 15.534 10.0959C15.9039 10.3212 16.3275 10.443 16.7606 10.4485C47.2831 10.4485 39.5014 10.0014 52.5514 12.1764C53.3244 12.2974 54.0374 12.6653 54.5841 13.225C55.1307 13.7847 55.4816 14.5062 55.5843 15.2818H54.376C54.0555 15.2818 53.7482 15.4091 53.5216 15.6357C53.295 15.8624 53.1677 16.1697 53.1677 16.4902C53.1677 16.8106 53.295 17.118 53.5216 17.3446C53.7482 17.5712 54.0555 17.6985 54.376 17.6985H55.5843C55.5843 18.3394 55.3297 18.9541 54.8765 19.4073C54.4233 19.8606 53.8086 20.1152 53.1677 20.1152Z" fill="#24272C"/>
</svg>
