<svg width="58" height="27" viewBox="0 0 58 27" fill="none" xmlns="http://www.w3.org/2000/svg">
<path d="M52.9492 8.79562L42.8234 7.10395C38.6667 3.53937 36.8422 1.58187 32.9272 0.421871C32.6195 0.332139 32.2888 0.368297 32.0078 0.52239C31.7268 0.676482 31.5186 0.935887 31.4288 1.24354C31.3391 1.55119 31.3752 1.88189 31.5293 2.16288C31.6834 2.44387 31.9428 2.65214 32.2505 2.74187C35.3317 3.6602 36.8301 5.15854 39.0292 7.03145H26.5834V4.61479C26.5834 4.29432 26.4561 3.98697 26.2295 3.76037C26.0029 3.53376 25.6955 3.40645 25.3751 3.40645C25.0546 3.40645 24.7473 3.53376 24.5206 3.76037C24.294 3.98697 24.1667 4.29432 24.1667 4.61479V7.03145H16.3488L14.2947 3.95021C13.8234 3.22521 13.763 3.40645 7.27424 3.40645C5.96027 3.4061 4.682 3.83412 3.63318 4.62564C2.58436 5.41715 1.82218 6.52902 1.46215 7.7927C-0.265764 13.8465 6.89644e-05 12.1548 6.89644e-05 16.6981C6.89644e-05 17.98 0.509294 19.2094 1.41572 20.1158C2.32215 21.0222 3.55152 21.5315 4.8334 21.5315H8.57924C8.85657 22.8972 9.59754 24.1251 10.6766 25.0071C11.7556 25.889 13.1064 26.3708 14.5001 26.3708C15.8937 26.3708 17.2445 25.889 18.3235 25.0071C19.4026 24.1251 20.1436 22.8972 20.4209 21.5315H37.5792C37.8566 22.8972 38.5975 24.1251 39.6766 25.0071C40.7556 25.889 42.1064 26.3708 43.5001 26.3708C44.8937 26.3708 46.2445 25.889 47.3235 25.0071C48.4026 24.1251 49.1436 22.8972 49.4209 21.5315H53.1667C54.4486 21.5315 55.678 21.0222 56.5844 20.1158C57.4908 19.2094 58.0001 17.98 58.0001 16.6981V14.7527C57.9994 13.3226 57.4915 11.9391 56.5666 10.8483C55.6418 9.75752 54.36 9.03016 52.9492 8.79562ZM54.1576 11.901C54.5399 12.1847 54.8626 12.541 55.1073 12.9494C55.3519 13.3579 55.5137 13.8105 55.5834 14.2815H54.3751C54.2164 14.2934 54.0569 14.2739 53.9058 14.2242C53.7546 14.1744 53.6147 14.0954 53.4941 13.9916C53.3735 13.8878 53.2745 13.7613 53.2028 13.6193C53.1311 13.4772 53.088 13.3224 53.0761 13.1637C53.0642 13.0051 53.0837 12.8456 53.1334 12.6944C53.1831 12.5433 53.2622 12.4034 53.3659 12.2828C53.4697 12.1622 53.5963 12.0632 53.7383 11.9914C53.8804 11.9197 54.0351 11.8767 54.1938 11.8648L54.1576 11.901ZM14.5001 23.9481C13.7831 23.9481 13.0823 23.7355 12.4861 23.3372C11.89 22.9389 11.4254 22.3727 11.151 21.7104C10.8766 21.048 10.8049 20.3191 10.9447 19.6159C11.0846 18.9127 11.4298 18.2668 11.9368 17.7599C12.4438 17.2529 13.0897 16.9076 13.7929 16.7678C14.496 16.6279 15.2249 16.6997 15.8873 16.9741C16.5497 17.2484 17.1158 17.7131 17.5141 18.3092C17.9125 18.9053 18.1251 19.6062 18.1251 20.3231C18.1251 21.2845 17.7432 22.2066 17.0633 22.8864C16.3835 23.5662 15.4615 23.9481 14.5001 23.9481ZM43.5001 23.9481C42.7831 23.9481 42.0823 23.7355 41.4861 23.3372C40.89 22.9389 40.4254 22.3727 40.151 21.7104C39.8766 21.048 39.8049 20.3191 39.9447 19.6159C40.0846 18.9127 40.4298 18.2668 40.9368 17.7599C41.4438 17.2529 42.0897 16.9076 42.7929 16.7678C43.4961 16.6279 44.2249 16.6997 44.8873 16.9741C45.5497 17.2484 46.1158 17.7131 46.5141 18.3092C46.9125 18.9053 47.1251 19.6062 47.1251 20.3231C47.1251 21.2845 46.7431 22.2066 46.0633 22.8864C45.3835 23.5662 44.4615 23.9481 43.5001 23.9481ZM53.1667 19.1148H49.4209C49.1436 17.749 48.4026 16.5211 47.3235 15.6392C46.2445 14.7572 44.8937 14.2754 43.5001 14.2754C42.1064 14.2754 40.7556 14.7572 39.6766 15.6392C38.5975 16.5211 37.8566 17.749 37.5792 19.1148H20.4209C20.1436 17.749 19.4026 16.5211 18.3235 15.6392C17.2445 14.7572 15.8937 14.2754 14.5001 14.2754C13.1064 14.2754 11.7556 14.7572 10.6766 15.6392C9.59754 16.5211 8.85657 17.749 8.57924 19.1148H4.8334C4.19246 19.1148 3.57777 18.8602 3.12456 18.407C2.67135 17.9538 2.41674 17.3391 2.41674 16.6981H3.62507C3.94554 16.6981 4.25288 16.5708 4.47949 16.3442C4.7061 16.1176 4.8334 15.8103 4.8334 15.4898C4.8334 15.1693 4.7061 14.862 4.47949 14.6354C4.25288 14.4088 3.94554 14.2815 3.62507 14.2815H2.41674C2.41674 12.9885 2.28382 13.7256 3.78215 8.45729C3.99682 7.7018 4.45104 7.03646 5.07646 6.5614C5.70189 6.08634 6.46469 5.82725 7.25007 5.82312H12.6151C14.7176 8.96479 14.8384 9.44812 15.6842 9.44812C47.2822 9.44812 39.0897 8.94062 51.4026 10.9827C50.9104 11.677 50.6782 12.5224 50.7467 13.3708C50.8151 14.2191 51.1799 15.0163 51.7772 15.6227C52.9855 16.831 54.3147 16.6981 55.5592 16.6981C55.5593 17.3349 55.308 17.9459 54.86 18.3985C54.412 18.851 53.8035 19.1084 53.1667 19.1148Z" fill="#24272C"/>
</svg>
