<svg width="58" height="22" viewBox="0 0 58 22" fill="none" xmlns="http://www.w3.org/2000/svg">
<path d="M53.5654 7.17053L42.6904 6.27636C32.4075 -1.07031 36.6488 0.234693 14.9954 0.234693C11.9867 0.234693 10.9475 2.38553 7.74542 6.37303L3.97542 7.00136C2.86572 7.20148 1.86092 7.7833 1.13493 8.6461C0.408944 9.50889 0.00747006 10.5984 0 11.7259L0 14.6984C0 15.6599 0.381919 16.5819 1.06174 17.2617C1.74156 17.9415 2.66359 18.3234 3.625 18.3234H7.41917C7.69742 19.3473 8.30488 20.2512 9.1478 20.8957C9.99073 21.5401 11.0223 21.8892 12.0833 21.8892C13.1444 21.8892 14.1759 21.5401 15.0189 20.8957C15.8618 20.2512 16.4692 19.3473 16.7475 18.3234H41.2525C41.5308 19.3473 42.1382 20.2512 42.9811 20.8957C43.8241 21.5401 44.8556 21.8892 45.9167 21.8892C46.9777 21.8892 48.0093 21.5401 48.8522 20.8957C49.6951 20.2512 50.3026 19.3473 50.5808 18.3234H54.375C55.3364 18.3234 56.2584 17.9415 56.9383 17.2617C57.6181 16.5819 58 15.6599 58 14.6984V11.9918C58.0011 10.7782 57.5456 9.60855 56.724 8.71533C55.9024 7.82211 54.7749 7.27065 53.5654 7.17053ZM38.5217 6.24011H30.2083V2.61511C34.0387 2.61511 35.0417 3.75094 38.5217 6.24011ZM24.1667 6.24011V2.61511H27.7917V6.24011H24.1667ZM18.125 6.24011V2.61511H21.75V6.24011H18.125ZM15.7083 2.61511V6.24011H10.9717C13.6663 2.88094 13.4729 2.61511 15.7083 2.61511ZM12.0833 19.5318C11.6054 19.5318 11.1381 19.39 10.7407 19.1245C10.3433 18.8589 10.0335 18.4815 9.85063 18.0399C9.66771 17.5983 9.61985 17.1124 9.7131 16.6436C9.80635 16.1749 10.0365 15.7442 10.3745 15.4063C10.7125 15.0683 11.1431 14.8381 11.6119 14.7449C12.0807 14.6516 12.5666 14.6995 13.0082 14.8824C13.4497 15.0653 13.8272 15.3751 14.0927 15.7725C14.3583 16.1699 14.5 16.6371 14.5 17.1151C14.5 17.7561 14.2454 18.3707 13.7922 18.824C13.339 19.2772 12.7243 19.5318 12.0833 19.5318ZM45.9167 19.5318C45.4387 19.5318 44.9715 19.39 44.574 19.1245C44.1766 18.8589 43.8669 18.4815 43.684 18.0399C43.501 17.5983 43.4532 17.1124 43.5464 16.6436C43.6397 16.1749 43.8698 15.7442 44.2078 15.4063C44.5458 15.0683 44.9764 14.8381 45.4452 14.7449C45.914 14.6516 46.3999 14.6995 46.8415 14.8824C47.2831 15.0653 47.6605 15.3751 47.9261 15.7725C48.1916 16.1699 48.3333 16.6371 48.3333 17.1151C48.3333 17.7561 48.0787 18.3707 47.6255 18.824C47.1723 19.2772 46.5576 19.5318 45.9167 19.5318ZM54.375 15.9068H50.5808C50.3026 14.8829 49.6951 13.979 48.8522 13.3346C48.0093 12.6901 46.9777 12.341 45.9167 12.341C44.8556 12.341 43.8241 12.6901 42.9811 13.3346C42.1382 13.979 41.5308 14.8829 41.2525 15.9068H16.7475C16.4692 14.8829 15.8618 13.979 15.0189 13.3346C14.1759 12.6901 13.1444 12.341 12.0833 12.341C11.0223 12.341 9.99073 12.6901 9.1478 13.3346C8.30488 13.979 7.69742 14.8829 7.41917 15.9068H3.625C3.30453 15.9068 2.99719 15.7795 2.77058 15.5529C2.54397 15.3263 2.41667 15.0189 2.41667 14.6984C2.41667 7.36386 -0.205414 8.65678 42.2917 8.65678L53.4204 9.58719C53.852 9.63515 54.2626 9.79848 54.6092 10.06C54.9558 10.3215 55.2255 10.6716 55.39 11.0734H54.375C54.0545 11.0734 53.7472 11.2007 53.5206 11.4274C53.294 11.654 53.1667 11.9613 53.1667 12.2818C53.1667 12.6022 53.294 12.9096 53.5206 13.1362C53.7472 13.3628 54.0545 13.4901 54.375 13.4901H55.5833V14.6984C55.5833 15.0189 55.456 15.3263 55.2294 15.5529C55.0028 15.7795 54.6955 15.9068 54.375 15.9068Z" fill="#24272C"/>
</svg>
