<svg width="103" height="58" viewBox="0 0 103 58" fill="none" xmlns="http://www.w3.org/2000/svg">
<g clip-path="url(#clip0_4002_17552)">
<path d="M80 31.1267C79.7164 29.954 79.1946 28.8521 78.4671 27.8897C77.7395 26.9272 76.8218 26.1247 75.7708 25.5321C73.9946 24.5292 73.475 24.6017 64.8958 23.0429C58.1413 16.3125 57.1625 14.5 53.8275 14.5H32.5608C31.7112 14.4988 30.8762 14.7215 30.1401 15.1458C29.404 15.57 28.7927 16.1809 28.3679 16.9167C24.8879 22.9583 24.6463 23.4054 24.5375 23.6229C24.4288 23.8404 24.4167 23.5988 24.4167 31.4167H23.2083C22.8879 31.4167 22.5805 31.544 22.3539 31.7706C22.1273 31.9972 22 32.3045 22 32.625V37.4583C22 37.7788 22.1273 38.0862 22.3539 38.3128C22.5805 38.5394 22.8879 38.6667 23.2083 38.6667H30.5792C30.8565 40.0324 31.5975 41.2603 32.6765 42.1423C33.7556 43.0243 35.1064 43.5061 36.5 43.5061C37.8936 43.5061 39.2444 43.0243 40.3235 42.1423C41.4025 41.2603 42.1435 40.0324 42.4208 38.6667H59.5792C59.8565 40.0324 60.5975 41.2603 61.6765 42.1423C62.7556 43.0243 64.1064 43.5061 65.5 43.5061C66.8936 43.5061 68.2444 43.0243 69.3235 42.1423C70.4025 41.2603 71.1435 40.0324 71.4208 38.6667C73.2853 38.4756 75.1371 38.1771 76.9671 37.7725C77.8226 37.6309 78.5991 37.1874 79.1556 36.5223C79.712 35.8572 80.0116 35.0146 80 34.1475C80.0737 33.1419 80.0737 32.1323 80 31.1267ZM74.8283 27.7917C75.765 28.3817 76.5216 29.2176 77.0154 30.2083H75.1667C74.8462 30.2532 74.521 30.1689 74.2627 29.974C74.0044 29.7792 73.834 29.4896 73.7892 29.1692C73.7443 28.8487 73.8286 28.5235 74.0235 28.2652C74.2183 28.0069 74.5079 27.8365 74.8283 27.7917ZM61.3796 22.9583H52.0513L51.1813 16.9167C56.2079 16.9167 54.625 16.24 61.3796 22.9583ZM38.3125 22.9583C35.2071 18.8138 35.2554 19.7321 37.1042 16.9167H41.1158L40.2458 22.9583H38.3125ZM43.5929 16.9167H48.7404L49.6104 22.9583H42.7229L43.5929 16.9167ZM28.0417 25.375C28.3621 25.375 28.6695 25.5023 28.8961 25.7289C29.1227 25.9555 29.25 26.2629 29.25 26.5833C29.25 26.9038 29.1227 27.2112 28.8961 27.4378C28.6695 27.6644 28.3621 27.7917 28.0417 27.7917H26.8333V25.375H28.0417ZM36.5 41.0833C35.783 41.0833 35.0822 40.8707 34.4861 40.4724C33.8899 40.0741 33.4253 39.5079 33.1509 38.8456C32.8766 38.1832 32.8048 37.4543 32.9447 36.7511C33.0845 36.048 33.4298 35.402 33.9367 34.8951C34.4437 34.3881 35.0896 34.0429 35.7928 33.903C36.496 33.7631 37.2248 33.8349 37.8872 34.1093C38.5496 34.3836 39.1158 34.8483 39.5141 35.4444C39.9124 36.0405 40.125 36.7414 40.125 37.4583C40.125 38.4197 39.7431 39.3418 39.0633 40.0216C38.3834 40.7014 37.4614 41.0833 36.5 41.0833ZM65.5 41.0833C64.783 41.0833 64.0822 40.8707 63.4861 40.4724C62.8899 40.0741 62.4253 39.5079 62.1509 38.8456C61.8766 38.1832 61.8048 37.4543 61.9447 36.7511C62.0845 36.048 62.4298 35.402 62.9367 34.8951C63.4437 34.3881 64.0896 34.0429 64.7928 33.903C65.496 33.7631 66.2248 33.8349 66.8872 34.1093C67.5496 34.3836 68.1158 34.8483 68.5141 35.4444C68.9124 36.0405 69.125 36.7414 69.125 37.4583C69.125 38.4197 68.7431 39.3418 68.0633 40.0216C67.3834 40.7014 66.4614 41.0833 65.5 41.0833ZM76.5683 35.3921C71.3363 36.25 71.5417 36.25 71.4208 36.25C71.1435 34.8842 70.4025 33.6564 69.3235 32.7744C68.2444 31.8924 66.8936 31.4106 65.5 31.4106C64.1064 31.4106 62.7556 31.8924 61.6765 32.7744C60.5975 33.6564 59.8565 34.8842 59.5792 36.25H42.4208C42.1435 34.8842 41.4025 33.6564 40.3235 32.7744C39.2444 31.8924 37.8936 31.4106 36.5 31.4106C35.1064 31.4106 33.7556 31.8924 32.6765 32.7744C31.5975 33.6564 30.8565 34.8842 30.5792 36.25H24.4167V33.8333H25.625C25.9455 33.8333 26.2528 33.706 26.4794 33.4794C26.706 33.2528 26.8333 32.9455 26.8333 32.625V30.2083H28.0417C32.7904 30.2083 33.0563 22.9583 27.7033 22.9583C31.3283 16.5904 30.5067 16.9167 34.2404 16.9167C33.7178 17.5467 33.4238 18.335 33.4063 19.1534C33.3887 19.9717 33.6486 20.7719 34.1438 21.4238L36.7417 24.8917C37.2613 25.5925 35.3279 25.375 64.1829 25.375L72.2667 26.8492C71.8696 27.3878 71.6295 28.0258 71.5727 28.6925C71.5159 29.3592 71.6448 30.0286 71.945 30.6266C72.2453 31.2246 72.7052 31.7278 73.2738 32.0805C73.8424 32.4332 74.4976 32.6217 75.1667 32.625H77.5833V34.2079C77.5813 34.4934 77.4783 34.7689 77.2925 34.9857C77.1067 35.2024 76.8501 35.3464 76.5683 35.3921Z" fill="#24272C"/>
<path d="M66.611 36.999C66.5483 36.8404 66.4527 36.6969 66.3306 36.5779C66.2085 36.4589 66.0626 36.3671 65.9024 36.3085C65.7423 36.25 65.5715 36.226 65.4015 36.2381C65.2314 36.2502 65.0658 36.2982 64.9156 36.3789C64.7653 36.4596 64.6339 36.5711 64.5299 36.7062C64.4259 36.8414 64.3516 36.997 64.312 37.1628C64.2724 37.3287 64.2684 37.501 64.3002 37.6686C64.332 37.8361 64.3988 37.995 64.4964 38.1348C64.6659 38.3777 64.9187 38.5499 65.2068 38.6187C65.4949 38.6874 65.7982 38.648 66.0591 38.5078C66.32 38.3677 66.5204 38.1366 66.6221 37.8584C66.7239 37.5803 66.7199 37.2744 66.611 36.999ZM36.9585 36.3465C36.7186 36.248 36.4534 36.2292 36.202 36.293C35.9507 36.3568 35.7265 36.4998 35.5627 36.7009C35.3988 36.9019 35.304 37.1503 35.2923 37.4094C35.2805 37.6684 35.3524 37.9244 35.4973 38.1395C35.6423 38.3545 35.8525 38.5173 36.0971 38.6036C36.3416 38.6899 36.6074 38.6953 36.8553 38.6189C37.1031 38.5425 37.3198 38.3884 37.4733 38.1794C37.6268 37.9704 37.709 37.7175 37.7077 37.4582C37.7065 37.2196 37.6347 36.9868 37.5014 36.7889C37.3681 36.5911 37.1792 36.4372 36.9585 36.3465ZM55.8327 27.7915H53.416C53.0955 27.7915 52.7882 27.9188 52.5616 28.1454C52.335 28.372 52.2077 28.6794 52.2077 28.9998C52.2077 29.3203 52.335 29.6277 52.5616 29.8543C52.7882 30.0809 53.0955 30.2082 53.416 30.2082H55.8327C56.1531 30.2082 56.4605 30.0809 56.6871 29.8543C56.9137 29.6277 57.041 29.3203 57.041 28.9998C57.041 28.6794 56.9137 28.372 56.6871 28.1454C56.4605 27.9188 56.1531 27.7915 55.8327 27.7915ZM46.166 27.7915H43.7493C43.4289 27.7915 43.1215 27.9188 42.8949 28.1454C42.6683 28.372 42.541 28.6794 42.541 28.9998C42.541 29.3203 42.6683 29.6277 42.8949 29.8543C43.1215 30.0809 43.4289 30.2082 43.7493 30.2082H46.166C46.4865 30.2082 46.7938 30.0809 47.0204 29.8543C47.247 29.6277 47.3743 29.3203 47.3743 28.9998C47.3743 28.6794 47.247 28.372 47.0204 28.1454C46.7938 27.9188 46.4865 27.7915 46.166 27.7915Z" fill="#24272C"/>
</g>
<defs>
<clipPath id="clip0_4002_17552">
<rect width="58" height="58" fill="white" transform="translate(22)"/>
</clipPath>
</defs>
</svg>
